<svg width="56" height="56" viewBox="0 0 56 56" fill="none" xmlns="http://www.w3.org/2000/svg">
<path d="M20.8599 54.5175C30.6568 50.0702 39.6899 52.0924 44.411 49.9504C49.1321 47.8068 57.8152 40.5922 47.9577 18.8735C38.1001 -2.84517 23.3161 0.0186089 18.1221 2.37683C-6.19432 13.4119 3.50768 62.3917 20.8599 54.5175Z" fill="#ECEFF2"/>
<path d="M21.2295 15.3222H21.0895L24.7341 12.4071C25.5275 11.7756 25.0764 10.5 24.0699 10.5H14.1035C13.0955 10.5 12.6459 11.7756 13.4393 12.4071L17.0824 15.3222H16.9424C13.2339 17.4969 10.2441 23.6911 10.2441 28.182C10.2441 31.3973 11.851 34.6111 15.6015 34.6111H22.8348C26.5853 34.6111 28.1922 31.3958 28.1922 28.182C28.1953 23.6911 24.9379 17.4969 21.2295 15.3222Z" fill="#F3F3F1"/>
<path d="M13.7461 28.182C13.7461 23.6927 16.7359 17.4984 20.4443 15.3222H20.5843L16.9412 12.4071C16.1479 11.7756 16.599 10.5 17.6054 10.5H14.1054C13.0974 10.5 12.6479 11.7756 13.4412 12.4071L17.0843 15.3222H16.9443C13.2359 17.4969 10.2461 23.6911 10.2461 28.182C10.2461 31.3973 11.853 34.6111 15.6034 34.6111H19.1034C15.353 34.6111 13.7461 31.3958 13.7461 28.182Z" fill="#E1E6EA"/>
<path d="M38.6685 15.3222H38.5285L42.1716 12.4071C42.965 11.7756 42.5139 10.5 41.5074 10.5H31.541C30.533 10.5 30.0834 11.7756 30.8768 12.4071L34.5199 15.3222H34.3799C30.6714 17.4969 27.6816 23.6911 27.6816 28.182C27.6816 31.3973 29.2885 34.6111 33.039 34.6111H40.2723C44.0228 34.6111 45.6296 31.3958 45.6296 28.182C45.6343 23.6911 42.377 17.4969 38.6685 15.3222Z" fill="#F3F3F1"/>
<path d="M31.1852 28.182C31.1852 23.6927 34.1749 17.4984 37.8834 15.3222H38.0234L34.3787 12.4071C33.5854 11.7756 34.0365 10.5 35.0429 10.5H31.5429C30.5349 10.5 30.0854 11.7756 30.8787 12.4071L34.5218 15.3222H34.3818C30.6734 17.4969 27.6836 23.6911 27.6836 28.182C27.6836 31.3973 29.2905 34.6111 33.0409 34.6111H36.5409C32.7936 34.6111 31.1852 31.3958 31.1852 28.182Z" fill="#E1E6EA"/>
<path d="M30.2037 26.211H30.0637L33.7068 23.2959C34.5001 22.6644 34.049 21.3888 33.0426 21.3888H23.0761C22.0681 21.3888 21.6186 22.6644 22.4119 23.2959L26.055 26.211H25.915C22.2066 28.3857 19.2168 34.5799 19.2168 39.0708C19.2168 42.2861 20.8237 45.4999 24.5741 45.4999H31.8075C35.5579 45.4999 37.1648 42.2846 37.1648 39.0708C37.1679 34.5799 33.9106 28.3857 30.2037 26.211Z" fill="#2A6CEA"/>
<path d="M27.2695 40.7555C26.9615 40.7555 26.6629 40.6327 26.4451 40.4133L23.334 37.3022L24.9844 35.6518L27.1451 37.8124L31.0029 32.6667L32.868 34.0667L28.2013 40.2889C27.9991 40.5595 27.6895 40.7291 27.3504 40.7524C27.324 40.7555 27.2975 40.7555 27.2695 40.7555Z" fill="white"/>
<path d="M22.7207 39.0708C22.7207 34.5815 25.7105 28.3872 29.4189 26.211H29.5589L25.9158 23.2959C25.1225 22.6644 25.5736 21.3888 26.58 21.3888H23.08C22.072 21.3888 21.6225 22.6644 22.4158 23.2959L26.0589 26.211H25.9189C22.2105 28.3857 19.2207 34.5799 19.2207 39.0708C19.2207 42.2861 20.8276 45.4999 24.578 45.4999H28.078C24.3276 45.4999 22.7207 42.2846 22.7207 39.0708Z" fill="#191C1F" fill-opacity="0.1"/>
<path d="M46.6152 42.6373L48.8151 40.4374L49.9151 41.5373L47.7152 43.7372L46.6152 42.6373Z" fill="#C2C8CD"/>
<path d="M40.291 48.9601L42.4909 46.7602L43.5908 47.8601L41.391 50.06L40.291 48.9601Z" fill="#C2C8CD"/>
<path d="M40.291 41.2615L41.391 40.1616L43.5908 42.3615L42.4909 43.4614L40.291 41.2615Z" fill="#C2C8CD"/>
<path d="M46.6152 47.5854L47.7152 46.4855L49.9151 48.6853L48.8151 49.7853L46.6152 47.5854Z" fill="#C2C8CD"/>
<path d="M22.0742 16.2339L20.6167 14.4107L24.0482 11.6668H14.6356L18.0671 14.4107L16.6096 16.2339L12.9664 13.3188C12.212 12.7183 11.932 11.7399 12.2509 10.8299C12.5682 9.92142 13.3973 9.33342 14.3587 9.33342H24.3251C25.288 9.33342 26.114 9.92142 26.4329 10.8314C26.7518 11.7414 26.4702 12.7183 25.7173 13.3203L22.0742 16.2339Z" fill="#191C1F"/>
<path d="M13.7168 14.1557H24.9681V16.489H13.7168V14.1557Z" fill="#191C1F"/>
<path d="M15.8595 35.7779C11.3515 35.7779 9.33398 31.9622 9.33398 28.1806C9.33398 23.6415 12.3206 16.8297 16.6078 14.3159L17.7884 16.3273C14.584 18.2079 11.6673 23.8577 11.6673 28.1806C11.6673 29.0595 11.8695 33.4446 15.8595 33.4446V35.7779Z" fill="#191C1F"/>
<path d="M39.3923 16.2339L37.9348 14.4107L41.3663 11.6668H31.9537L35.3852 14.4107L33.9277 16.2339L30.2846 13.3203C29.5317 12.7183 29.2501 11.7399 29.569 10.8299C29.8879 9.92142 30.7154 9.33342 31.6768 9.33342H41.6432C42.6061 9.33342 43.4321 9.92142 43.751 10.8314C44.0699 11.7414 43.7884 12.7183 43.0355 13.3203L39.3923 16.2339Z" fill="#191C1F"/>
<path d="M31.0332 14.1557H42.2845V16.489H31.0332V14.1557Z" fill="#191C1F"/>
<path d="M40.1433 35.7779V33.4446C44.1318 33.4446 44.334 29.061 44.334 28.1806C44.334 23.8577 41.4173 18.2079 38.2129 16.3273L39.3936 14.3159C43.6791 16.8297 46.6673 23.6415 46.6673 28.1806C46.6673 31.9622 44.6498 35.7779 40.1433 35.7779Z" fill="#191C1F"/>
</svg>
