<svg width="56" height="56" viewBox="0 0 56 56" fill="none" xmlns="http://www.w3.org/2000/svg">
<path d="M54.295 31.6634C48.4119 22.6552 49.0372 13.4214 46.2014 9.07983C43.3657 4.73828 34.9143 -2.74706 14.9457 10.2963C-5.023 23.3396 0.0558884 37.5185 3.17633 42.2925C17.7799 64.6489 64.7157 47.6172 54.295 31.6634Z" fill="#ECEFF2"/>
<path d="M48.1543 32.6921L49.2542 31.5922L51.4541 33.7921L50.3542 34.892L48.1543 32.6921Z" fill="#C2C8CD"/>
<path d="M41.8301 26.3689L42.93 25.2689L45.1299 27.4688L44.03 28.5688L41.8301 26.3689Z" fill="#C2C8CD"/>
<path d="M48.4316 27.4767L50.6315 25.2768L51.7315 26.3767L49.5316 28.5766L48.4316 27.4767Z" fill="#C2C8CD"/>
<path d="M29.5404 51.458C28.2539 51.458 27.207 50.4111 27.207 49.1247C27.207 47.8382 28.2539 46.7913 29.5404 46.7913C30.8268 46.7913 31.8737 47.8382 31.8737 49.1247C31.8737 50.4111 30.8268 51.458 29.5404 51.458ZM29.5404 48.3469C29.111 48.3469 28.7626 48.6953 28.7626 49.1247C28.7626 49.554 29.111 49.9024 29.5404 49.9024C29.9697 49.9024 30.3181 49.554 30.3181 49.1247C30.3181 48.6953 29.9697 48.3469 29.5404 48.3469Z" fill="#C2C8CD"/>
<path d="M30.3807 26.0556H12.834V31.5V42.3889H18.2784H23.6918H35.3895V31.5778V26.0556H30.3807Z" fill="#F3F3F1"/>
<path d="M39.2776 31.5777H35.3887V42.3888H36.9442H42.356H45.4998V37.7999C45.4998 34.3637 42.7138 31.5777 39.2776 31.5777Z" fill="#2A6CEA"/>
<path d="M20.9996 45.5C22.503 45.5 23.7218 44.2813 23.7218 42.7778C23.7218 41.2744 22.503 40.0556 20.9996 40.0556C19.4961 40.0556 18.2773 41.2744 18.2773 42.7778C18.2773 44.2813 19.4961 45.5 20.9996 45.5Z" fill="#F3F3F1"/>
<path d="M39.6675 45.5C41.171 45.5 42.3898 44.2813 42.3898 42.7778C42.3898 41.2744 41.171 40.0556 39.6675 40.0556C38.1641 40.0556 36.9453 41.2744 36.9453 42.7778C36.9453 44.2813 38.1641 45.5 39.6675 45.5Z" fill="#F3F3F1"/>
<path d="M19.4445 28.3889C24.3843 28.3889 28.3889 24.3843 28.3889 19.4445C28.3889 14.5046 24.3843 10.5 19.4445 10.5C14.5046 10.5 10.5 14.5046 10.5 19.4445C10.5 24.3843 14.5046 28.3889 19.4445 28.3889Z" fill="#2A6CEA"/>
<path d="M16.3322 28H12.4434V32.9259V42.7778H16.3322V32.9259V28Z" fill="#E1E6EA"/>
<path d="M35.3887 31.5777V42.3888H36.9442H38.8887V31.5777H35.3887Z" fill="#191C1F" fill-opacity="0.1"/>
<path d="M21.7773 42.7778C21.7773 41.944 22.16 41.2083 22.7496 40.7089C22.2751 40.3076 21.67 40.0556 20.9996 40.0556C19.4969 40.0556 18.2773 41.2752 18.2773 42.7778C18.2773 44.2805 19.4969 45.5 20.9996 45.5C21.67 45.5 22.2751 45.248 22.7496 44.8467C22.16 44.3474 21.7773 43.6116 21.7773 42.7778Z" fill="#D5DBE1"/>
<path d="M40.4453 42.7778C40.4453 41.944 40.828 41.2083 41.4175 40.7089C40.9431 40.3076 40.338 40.0556 39.6675 40.0556C38.1649 40.0556 36.9453 41.2752 36.9453 42.7778C36.9453 44.2805 38.1649 45.5 39.6675 45.5C40.338 45.5 40.9431 45.248 41.4175 44.8467C40.828 44.3474 40.4453 43.6116 40.4453 42.7778Z" fill="#D5DBE1"/>
<path d="M14 19.4445C14 15.1044 17.0924 11.4878 21.1945 10.6742C20.6282 10.5607 20.0433 10.5 19.4444 10.5C14.504 10.5 10.5 14.504 10.5 19.4445C10.5 24.3849 14.504 28.3889 19.4444 28.3889C20.0433 28.3889 20.6282 28.3282 21.1945 28.2147C17.0924 27.4011 14 23.7845 14 19.4445Z" fill="#191C1F" fill-opacity="0.1"/>
<path d="M19.4462 23.7224C19.1475 23.7224 18.8489 23.6088 18.6217 23.3801L13.9551 18.7135L15.6055 17.063L19.4477 20.9052L23.29 17.063L24.9404 18.7135L20.2737 23.3801C20.0435 23.6088 19.7449 23.7224 19.4462 23.7224Z" fill="white"/>
<path d="M19.4457 43.5557H12.8346C12.1906 43.5557 11.668 43.033 11.668 42.389V30.1623H14.0013V41.2223H19.4457V43.5557Z" fill="#191C1F"/>
<path d="M35.3898 43.5557H22.5254V41.2223H34.2232V27.2223H30.1632V24.889H35.3898C36.0338 24.889 36.5565 25.4117 36.5565 26.0557V42.389C36.5565 43.033 36.0338 43.5557 35.3898 43.5557Z" fill="#191C1F"/>
<path d="M45.5004 43.5555H41.19V41.2222H44.3338V37.8C44.3338 35.0124 42.0658 32.7444 39.2782 32.7444H36.556V41.2222H38.1115V43.5555H35.3893C34.7453 43.5555 34.2227 43.0329 34.2227 42.3889V31.5778C34.2227 30.9338 34.7453 30.4111 35.3893 30.4111H39.2782C43.3522 30.4111 46.6671 33.726 46.6671 37.8V42.3889C46.6671 43.0329 46.1444 43.5555 45.5004 43.5555Z" fill="#191C1F"/>
<path d="M21.0002 46.6668C18.8567 46.6668 17.1113 44.9215 17.1113 42.7779C17.1113 40.6343 18.8567 38.889 21.0002 38.889C23.1438 38.889 24.8891 40.6343 24.8891 42.7779C24.8891 44.9215 23.1438 46.6668 21.0002 46.6668ZM21.0002 41.2223C20.1431 41.2223 19.4447 41.9208 19.4447 42.7779C19.4447 43.635 20.1431 44.3335 21.0002 44.3335C21.8573 44.3335 22.5558 43.635 22.5558 42.7779C22.5558 41.9208 21.8573 41.2223 21.0002 41.2223Z" fill="#191C1F"/>
<path d="M39.6682 46.6668C37.5246 46.6668 35.7793 44.9215 35.7793 42.7779C35.7793 40.6343 37.5246 38.889 39.6682 38.889C41.8117 38.889 43.5571 40.6343 43.5571 42.7779C43.5571 44.9215 41.8117 46.6668 39.6682 46.6668ZM39.6682 41.2223C38.8111 41.2223 38.1126 41.9208 38.1126 42.7779C38.1126 43.635 38.8111 44.3335 39.6682 44.3335C40.5253 44.3335 41.2237 43.635 41.2237 42.7779C41.2237 41.9208 40.5253 41.2223 39.6682 41.2223Z" fill="#191C1F"/>
</svg>
