<svg width="56" height="56" viewBox="0 0 56 56" fill="none" xmlns="http://www.w3.org/2000/svg">
<path d="M6.48176 42.9691C6.48176 32.2094 0.908203 24.8205 0.908203 19.6358C0.908203 14.4511 3.88865 3.56226 27.74 3.56226C51.5913 3.56226 55.0913 18.2109 55.0913 23.9136C55.0929 50.6178 6.48176 62.0247 6.48176 42.9691Z" fill="#ECEFF2"/>
<path d="M41.416 12.8334H42.9716V15.9445H41.416V12.8334Z" fill="#C2C8CD"/>
<path d="M44.916 17.5H48.0271V19.0555H44.916V17.5Z" fill="#C2C8CD"/>
<path d="M33.0556 37.8311V13.6111C33.0556 11.8922 31.6633 10.5 29.9444 10.5H13.6111C11.8922 10.5 10.5 11.8922 10.5 13.6111V37.8311C10.5 39.55 11.8922 40.9422 13.6111 40.9422H29.9444C31.6633 40.9422 33.0556 39.55 33.0556 37.8311Z" fill="#F3F3F1"/>
<path d="M37.3327 45.5001C37.3327 45.5001 45.4994 42.0281 45.4994 35.0841C45.4994 32.3058 45.4994 28.8338 45.4994 28.8338L37.3327 26.0556L29.166 28.8338V35.0841C29.166 42.0281 37.3327 45.5001 37.3327 45.5001Z" fill="#2A6CEA"/>
<path d="M14 37.8311V13.6111C14 11.8922 15.3922 10.5 17.1111 10.5H13.6111C11.8922 10.5 10.5 11.8922 10.5 13.6111V37.8311C10.5 39.55 11.8922 40.9422 13.6111 40.9422H17.1111C15.3922 40.9422 14 39.55 14 37.8311Z" fill="#E1E6EA"/>
<path d="M32.666 35.0841C32.666 30.9167 32.666 28.8338 32.666 28.8338L39.0827 26.6514L37.3327 26.0556L29.166 28.8338V35.0841C29.166 42.0281 37.3327 45.5001 37.3327 45.5001C37.3327 45.5001 38.0654 45.1843 39.0827 44.5683C36.684 43.1154 32.666 39.9592 32.666 35.0841Z" fill="#191C1F" fill-opacity="0.1"/>
<path d="M23.7229 42.0001H13.6118C11.252 42.0001 9.33398 40.0821 9.33398 37.7223V13.6112C9.33398 11.2514 11.252 9.33339 13.6118 9.33339H29.9451C32.3049 9.33339 34.2229 11.2514 34.2229 13.6112V22.1667H31.8896V13.6112C31.8896 12.5394 31.0169 11.6667 29.9451 11.6667H13.6118C12.54 11.6667 11.6673 12.5394 11.6673 13.6112V37.7223C11.6673 38.7941 12.54 39.6667 13.6118 39.6667H23.7229V42.0001Z" fill="#191C1F"/>
<path d="M15.9907 29.2133L14.3418 27.5644L18.2307 23.6755C18.6025 23.3022 19.1765 23.2259 19.6338 23.4873L21.614 24.6197L26.0411 20.5333L27.6247 22.2491L22.5691 26.9157C22.1942 27.2611 21.6389 27.3233 21.1987 27.0713L19.2496 25.9575L15.9907 29.2133Z" fill="#191C1F"/>
<path d="M27.9996 26.4444H25.6662V22.5555H21.7773V20.2222H26.8329C27.4769 20.2222 27.9996 20.7449 27.9996 21.3889V26.4444Z" fill="#191C1F"/>
<path d="M36.9434 39.6666C36.6354 39.6666 36.3367 39.5437 36.1189 39.3243L33.0078 36.2132L34.6583 34.5628L36.8189 36.7235L40.6767 31.5777L42.5418 32.9777L37.8751 39.1999C37.6729 39.4706 37.3634 39.6401 37.0243 39.6635C36.9978 39.6666 36.9714 39.6666 36.9434 39.6666Z" fill="white"/>
</svg>
