<svg width="56" height="56" viewBox="0 0 56 56" fill="none" xmlns="http://www.w3.org/2000/svg">
<path d="M54.295 31.6634C48.4119 22.6552 49.0372 13.4214 46.2014 9.07983C43.3657 4.73828 34.9143 -2.74706 14.9457 10.2963C-5.023 23.3396 0.0558884 37.5185 3.17633 42.2925C17.7799 64.6489 64.7157 47.6172 54.295 31.6634Z" fill="#ECEFF2"/>
<path d="M29.1667 17.8049C29.1667 18.1627 28.9318 18.4707 28.6067 18.5764L21.0513 21.0513L18.5764 28.6067C18.4707 28.9318 18.1627 29.1667 17.8049 29.1667C17.4564 29.1667 17.164 28.9473 17.0504 28.6471L10.5576 11.6044C10.5156 11.5142 10.5 11.4178 10.5 11.312C10.5 10.8656 10.8656 10.5 11.312 10.5C11.4178 10.5 11.5142 10.5156 11.6044 10.5576L28.6487 17.0504C28.9473 17.1624 29.1667 17.4549 29.1667 17.8049Z" fill="#F3F3F1"/>
<path d="M14.0576 11.6044C14.0404 11.5671 14.042 11.522 14.0327 11.4831L11.6044 10.5576C11.5142 10.5156 11.4178 10.5 11.312 10.5C10.8656 10.5 10.5 10.8656 10.5 11.312C10.5 11.4178 10.5156 11.5142 10.556 11.6044L17.0489 28.6487C17.1624 28.9489 17.4549 29.1682 17.8033 29.1682C18.1611 29.1682 18.4691 28.9333 18.5749 28.6082L19.4802 25.844L14.0576 11.6044Z" fill="#E1E6EA"/>
<path d="M35 45.5C40.799 45.5 45.5 40.799 45.5 35C45.5 29.201 40.799 24.5 35 24.5C29.201 24.5 24.5 29.201 24.5 35C24.5 40.799 29.201 45.5 35 45.5Z" fill="#2A6CEA"/>
<path d="M28 35C28 29.7982 31.7862 25.4924 36.75 24.6571C36.1791 24.5607 35.5973 24.5 35 24.5C29.2009 24.5 24.5 29.2009 24.5 35C24.5 40.7991 29.2009 45.5 35 45.5C35.5973 45.5 36.1791 45.4378 36.75 45.3429C31.7862 44.5076 28 40.2018 28 35Z" fill="#191C1F" fill-opacity="0.1"/>
<path d="M46.8672 19.727L47.9671 18.6271L50.167 20.827L49.0671 21.9269L46.8672 19.727Z" fill="#C2C8CD"/>
<path d="M40.5449 13.4011L41.6449 12.3012L43.8447 14.501L42.7448 15.601L40.5449 13.4011Z" fill="#C2C8CD"/>
<path d="M47.1426 14.5024L49.3425 12.3025L50.4424 13.4024L48.2425 15.6023L47.1426 14.5024Z" fill="#C2C8CD"/>
<path d="M40.8203 20.8249L43.0202 18.625L44.1201 19.725L41.9203 21.9249L40.8203 20.8249Z" fill="#C2C8CD"/>
<path d="M38.5376 40.1799L34.2598 36.6799C33.9876 36.459 33.832 36.1277 33.832 35.7777V29.1666H36.1654V35.2255L40.0154 38.3755L38.5376 40.1799Z" fill="white"/>
<path d="M17.804 30.3334C16.9889 30.3334 16.2469 29.8216 15.9575 29.061L9.46621 12.0198C9.38532 11.841 9.33398 11.5843 9.33398 11.3105C9.33398 10.2201 10.2207 9.3334 11.3111 9.3334C11.5849 9.3334 11.8415 9.38474 12.0749 9.48896L29.0615 15.9585C29.8207 16.2478 30.3324 16.9883 30.3324 17.805C30.3324 18.6636 29.7833 19.4181 28.9682 19.6856L21.9744 21.977L19.6831 28.9707C19.4171 29.7843 18.6627 30.3334 17.804 30.3334ZM11.9271 11.9281L17.7807 27.2876L19.9429 20.6874C20.058 20.3343 20.3364 20.0574 20.688 19.9423L27.2882 17.7801L11.9271 11.9281ZM11.1898 11.6465C11.1944 11.6481 11.2007 11.6512 11.2084 11.6527L11.1898 11.6465ZM11.6253 11.1332L11.6455 11.1861C11.6393 11.1705 11.6331 11.1534 11.6253 11.1332Z" fill="#191C1F"/>
</svg>
